<svg xmlns="http://www.w3.org/2000/svg" viewBox="0 0 620.15 204.71"><defs><style>.cls-1{fill:#275ea3;}</style></defs><title> en - blue</title><g id="Layer_2" data-name="Layer 2"><g id="Layer_1-2" data-name="Layer 1"><path class="cls-1" d="M181.92,130l-54.86,1.66,9.67-69.46L145.39,0,108.73,51l-91,126.54L0,202.13H174.84l4.06-9.37,17.76-41.07,9.7-22.44Zm-17.29,56.6H30.32l91-126.54-12.21,87.69,73.26-2.22Z"/><path class="cls-1" d="M288.28,65v17c-5.36-3.1-10.15-5.83-17.3-5.83-4.14,0-7.62,1.13-7.62,4,0,3.1,4.14,4.23,9.4,6.2L279.54,89c9.12,3.48,12.6,10.16,12.6,16.18,0,12-11.57,20.7-26.15,20.7A37.68,37.68,0,0,1,245.11,119V102c6,4.52,13.17,7.72,20.22,7.72,4.33,0,7.34-.94,7.34-3.58,0-1.88-2.16-3.2-5.55-4.23l-8.94-2.82c-10.62-3.39-13.35-10.91-13.35-18.53,0-13.27,11.47-20.51,23.8-20.51C276,60.05,283.86,62,288.28,65Z"/><path class="cls-1" d="M329.49,61.46c12.69,0,25.68,8.94,25.68,23.8,0,14.58-11.57,23.14-23.8,23.14a24.45,24.45,0,0,1-11.29-2.54v18.62H302.49v-63Zm7.62,23.8c0-5.17-4.14-7.34-9.69-7.34h-7.34V92.5a21.54,21.54,0,0,0,7.34,1.32C333,93.82,337.11,89.78,337.11,85.26Z"/><path class="cls-1" d="M376,116l-3.11,8.46h-20.5l29.15-64h8.85l29.16,64H399L395.9,116Zm10-27.09-4.8,13h9.5Z"/><path class="cls-1" d="M446.5,99.37v25.11H428.91v-63h27c12.7,0,25.68,7.06,25.68,21.92,0,9.31-5.93,15.71-14.2,18l17.77,23.13H463.72Zm0-9.69A21.79,21.79,0,0,0,453.84,91c5.55,0,9.69-2.17,9.69-6.68,0-5.17-4.14-6.4-9.69-6.4H446.5Z"/><path class="cls-1" d="M512.16,107.27v17.21H494.57v-63h17.59V84.6l19.29-23.14h21.16L529.85,87.33l25.58,37.15H533l-15.14-23.7Z"/><path class="cls-1" d="M296.37,145v13.16c-4.6-3.48-9-7-17.4-7a20.56,20.56,0,0,0,0,41.11c8.37,0,13.64-3,18.34-6.68v12.7c-4.32,3.86-10.81,6.4-18.71,6.4-18.06,0-33.3-13.46-33.3-32.93s15.24-32.92,33.3-32.92C286.5,138.86,292.05,141.21,296.37,145Z"/><path class="cls-1" d="M324,165.86h27.84v10.63H324v15.24h31.51V203.3H311v-63h44.58v11.29H324Z"/><path class="cls-1" d="M422.8,203.77l-37.25-38.48v38H372.48V139.8h4.79l37.25,39V140.27H427.6v63.5Z"/><path class="cls-1" d="M472.75,152v51h-13V152H439.64V140.27h53.24V152Z"/><path class="cls-1" d="M517.9,165.86h27.84v10.63H517.9v15.24h31.51V203.3H504.83v-63h44.58v11.29H517.9Z"/><path class="cls-1" d="M579.42,177.43V203.3H566.35v-63h25.58c11.76,0,23.8,6.49,23.8,20.41,0,10.92-8.94,17.31-19.19,18.25l23.61,24.37H602.94Zm0-9a37.62,37.62,0,0,0,10.63,1.6c7.52,0,12.32-3.2,12.32-8.85,0-6.11-5.36-8.65-12.13-8.65H579.42Z"/></g></g></svg>